                                                                        S      1
,,8HIS120 v0,8HIS120 v0,7Hunknown,7Hunknown,32,38,7,99,15,,1.,2,2HMM,1, G      1
0.08,15H20151125.014330,0.01,10000.,7Hunknown,7Hunknown,11,0,;          G      2
     186       1                                                00000000D      1
     186            -233       1       0                               0D      2
     186       2                                                00000000D      3
     186            -233       1       0                               0D      4
     514       3                                                00010000D      5
     514                       1       1                               0D      6
     514       4                                                00010000D      7
     514                       1       1                               0D      8
     510       5                                                00010000D      9
     510            -233       1       1                               0D     10
     510       6                                                00010000D     11
     510            -233       1       1                               0D     12
     510       7                                                00010000D     13
     510            -233       1       1                               0D     14
     510       8                                                00010000D     15
     510            -233       1       1                               0D     16
     510       9                                                00010000D     17
     510            -233       1       1                               0D     18
     510      10                                                00010000D     19
     510            -233       1       1                               0D     20
     510      11                                                00010000D     21
     510            -233       1       1                               0D     22
     510      12                                                00010000D     23
     510            -233       1       1                               0D     24
     510      13                                                00010000D     25
     510            -233       1       1                               0D     26
     510      14                                                00010000D     27
     510            -233       1       1                               0D     28
     510      15                                                00010000D     29
     510            -233       1       1                               0D     30
     510      16                                                00010000D     31
     510            -233       1       1                               0D     32
     510      17                                                00010000D     33
     510            -233       1       1                               0D     34
     510      18                                                00010000D     35
     510            -233       1       1                               0D     36
     510      19                                                00010000D     37
     510            -233       1       1                               0D     38
     510      20                                                00010000D     39
     510            -233       1       1                               0D     40
     510      21                                                00010000D     41
     510            -233       1       1                               0D     42
     510      22                                                00010000D     43
     510            -233       1       1                               0D     44
     510      23                                                00010000D     45
     510            -233       1       1                               0D     46
     510      24                                                00010000D     47
     510            -233       1       1                               0D     48
     508      25                                                00010000D     49
     508                       1       1                               0D     50
     508      26                                                00010000D     51
     508                       1       1                               0D     52
     508      27                                                00010000D     53
     508                       1       1                               0D     54
     508      28                                                00010000D     55
     508                       1       1                               0D     56
     508      29                                                00010000D     57
     508                       1       1                               0D     58
     508      30                                                00010000D     59
     508                       1       1                               0D     60
     508      31                                                00010000D     61
     508                       1       1                               0D     62
     508      32                                                00010000D     63
     508                       1       1                               0D     64
     508      33                                                00010000D     65
     508                       1       1                               0D     66
     508      34                                                00010000D     67
     508                       1       1                               0D     68
     508      35                                                00010000D     69
     508                       1       1                               0D     70
     508      36                                                00010000D     71
     508                       1       1                               0D     72
     508      37                                                00010000D     73
     508                       1       1                               0D     74
     508      38                                                00010000D     75
     508                       1       1                               0D     76
     508      39                                                00010000D     77
     508                       1       1                               0D     78
     508      40                                                00010000D     79
     508                       1       1                               0D     80
     508      41                                                00010000D     81
     508                       2       1                               0D     82
     508      43                                                00010000D     83
     508                       1       1                               0D     84
     508      44                                                00010000D     85
     508                       2       1                               0D     86
     508      46                                                00010000D     87
     508                       1       1                               0D     88
     508      47                                                00010000D     89
     508                       1       1                               0D     90
     126      48                                                00010000D     91
     126       0               3       0                               0D     92
     126      51                                                00010000D     93
     126       0               3       0                               0D     94
     126      54                                                00010000D     95
     126       0               3       0                               0D     96
     126      57                                                00010000D     97
     126       0               3       0                               0D     98
     126      60                                                00010000D     99
     126       0               3       0                               0D    100
     126      63                                                00010000D    101
     126       0               3       0                               0D    102
     126      66                                                00010000D    103
     126       0               3       0                               0D    104
     126      69                                                00010000D    105
     126       0               3       0                               0D    106
     126      72                                                00010000D    107
     126       0               3       0                               0D    108
     126      75                                                00010000D    109
     126       0               3       0                               0D    110
     126      78                                                00010000D    111
     126       0               3       0                               0D    112
     126      81                                                00010000D    113
     126       0               3       0                               0D    114
     126      84                                                00010000D    115
     126       0               3       0                               0D    116
     126      87                                                00010000D    117
     126       0               3       0                               0D    118
     126      90                                                00010000D    119
     126       0               3       0                               0D    120
     126      93                                                00010000D    121
     126       0               3       0                               0D    122
     126      96                                                00010000D    123
     126       0               3       0                               0D    124
     126      99                                                00010000D    125
     126       0               3       0                               0D    126
     126     102                                                00010000D    127
     126       0               3       0                               0D    128
     126     105                                                00010000D    129
     126       0               3       0                               0D    130
     126     108                                                00010000D    131
     126       0               3       0                               0D    132
     126     111                                                00010000D    133
     126       0               3       0                               0D    134
     126     114                                                00010000D    135
     126       0               3       0                               0D    136
     126     117                                                00010000D    137
     126       0               3       0                               0D    138
     126     120                                                00010000D    139
     126       0               4       0                               0D    140
     126     124                                                00010000D    141
     126       0               3       0                               0D    142
     126     127                                                00010000D    143
     126       0               4       0                               0D    144
     126     131                                                00010000D    145
     126       0               3       0                               0D    146
     126     134                                                00010000D    147
     126       0               4       0                               0D    148
     126     138                                                00010000D    149
     126       0               3       0                               0D    150
     126     141                                                00010000D    151
     126       0               4       0                               0D    152
     126     145                                                00010000D    153
     126       0               4       0                               0D    154
     126     149                                                00010000D    155
     126       0               4       0                               0D    156
     126     153                                                00010000D    157
     126       0               3       0                               0D    158
     126     156                                                00010000D    159
     126       0               4       0                               0D    160
     126     160                                                00010000D    161
     126       0               4       0                               0D    162
     126     164                                                00010000D    163
     126       0               3       0                               0D    164
     126     167                                                00010000D    165
     126       0               3       0                               0D    166
     126     170                                                00010000D    167
     126       0               3       0                               0D    168
     126     173                                                00010000D    169
     126       0               3       0                               0D    170
     126     176                                                00010000D    171
     126       0               3       0                               0D    172
     126     179                                                00010000D    173
     126       0               3       0                               0D    174
     126     182                                                00010000D    175
     126       0               3       0                               0D    176
     126     185                                                00010000D    177
     126       0               3       0                               0D    178
     126     188                                                00010000D    179
     126       0               3       0                               0D    180
     128     191                                                00010000D    181
     128       0    -233       7       0                               0D    182
     128     198                                                00010000D    183
     128       0    -233       5       0                               0D    184
     128     203                                                00010000D    185
     128       0    -233       6       0                               0D    186
     128     209                                                00010000D    187
     128       0    -233       5       0                               0D    188
     128     214                                                00010000D    189
     128       0    -233       5       0                               0D    190
     128     219                                                00010000D    191
     128       0    -233       4       0                               0D    192
     128     223                                                00010000D    193
     128       0    -233       5       0                               0D    194
     128     228                                                00010000D    195
     128       0    -233       5       0                               0D    196
     128     233                                                00010000D    197
     128       0    -233       5       0                               0D    198
     128     238                                                00010000D    199
     128       0    -233       4       0                               0D    200
     128     242                                                00010000D    201
     128       0    -233       5       0                               0D    202
     128     247                                                00010000D    203
     128       0    -233       8       0                               0D    204
     128     255                                                00010000D    205
     128       0    -233       8       0                               0D    206
     128     263                                                00010000D    207
     128       0    -233       8       0                               0D    208
     128     271                                                00010000D    209
     128       0    -233       8       0                               0D    210
     128     279                                                00010000D    211
     128       0    -233       5       0                               0D    212
     128     284                                                00010000D    213
     128       0    -233       6       0                               0D    214
     128     290                                                00010000D    215
     128       0    -233       6       0                               0D    216
     128     296                                                00010000D    217
     128       0    -233       7       0                               0D    218
     128     303                                                00010000D    219
     128       0    -233       5       0                               0D    220
     502     308                                                00010000D    221
     502                      10       1                               0D    222
     502     318                                                00010000D    223
     502                      10       1                               0D    224
     504     328                                                00010001D    225
     504                       7       1                               0D    226
     504     335                                                00010001D    227
     504                       6       1                               0D    228
     406     341                                                00000000D    229
     406                       1      15                               0D    230
     406     342                                                00000000D    231
     406                       1      15                               0D    232
     314     343                                                00000200D    233
     314                       2       0                               0D    234
186,5,1,0,0,1,229;                                                     1P      1
186,7,1,0,0,1,231;                                                     3P      2
514,11,9,1,11,1,13,1,15,1,17,1,19,1,21,1,23,1,25,1,27,1,29,1;          5P      3
514,9,31,1,33,1,35,1,37,1,39,1,41,1,43,1,45,1,47,1;                    7P      4
510,181,1,1,49;                                                        9P      5
510,183,1,1,51;                                                       11P      6
510,185,1,1,53;                                                       13P      7
510,187,1,1,55;                                                       15P      8
510,189,1,1,57;                                                       17P      9
510,191,2,1,59,61;                                                    19P     10
510,193,1,1,63;                                                       21P     11
510,195,1,1,65;                                                       23P     12
510,197,1,1,67;                                                       25P     13
510,199,1,1,69;                                                       27P     14
510,201,1,1,71;                                                       29P     15
510,203,1,1,73;                                                       31P     16
510,205,1,1,75;                                                       33P     17
510,207,1,1,77;                                                       35P     18
510,209,1,1,79;                                                       37P     19
510,211,1,1,81;                                                       39P     20
510,213,1,1,83;                                                       41P     21
510,215,1,1,85;                                                       43P     22
510,217,1,1,87;                                                       45P     23
510,219,1,1,89;                                                       47P     24
508,4,0,225,1,0,0,0,225,2,1,0,0,225,3,1,0,0,225,4,0,0;                49P     25
508,4,0,225,5,0,0,0,225,6,1,0,0,225,7,1,0,0,225,2,0,0;                51P     26
508,4,0,225,8,0,0,0,225,9,1,0,0,225,10,1,0,0,225,6,0,0;               53P     27
508,4,0,225,11,0,0,0,225,4,1,0,0,225,12,1,0,0,225,9,0,0;              55P     28
508,4,0,225,12,0,0,0,225,3,0,0,0,225,7,0,0,0,225,10,0,0;              57P     29
508,4,0,225,13,1,0,0,225,14,1,0,0,225,15,1,0,0,225,16,1,0;            59P     30
508,4,0,225,1,1,0,0,225,11,1,0,0,225,8,1,0,0,225,5,1,0;               61P     31
508,4,0,225,17,1,0,0,225,18,1,0,0,225,19,1,0,0,225,20,1,0;            63P     32
508,4,0,225,21,1,0,0,225,18,0,0,0,225,22,0,0,0,225,16,0,0;            65P     33
508,4,0,225,23,1,0,0,225,19,0,0,0,225,21,0,0,0,225,15,0,0;            67P     34
508,4,0,225,24,1,0,0,225,20,0,0,0,225,23,0,0,0,225,14,0,0;            69P     35
508,4,0,225,22,1,0,0,225,17,0,0,0,225,24,0,0,0,225,13,0,0;            71P     36
508,4,0,227,1,0,0,0,227,2,0,0,0,227,3,0,0,0,227,4,0,0;                73P     37
508,4,0,227,5,0,0,0,227,6,1,0,0,227,7,0,0,0,227,2,1,0;                75P     38
508,4,0,227,8,0,0,0,227,4,1,0,0,227,9,0,0,0,227,10,1,0;               77P     39
508,4,0,227,11,0,0,0,227,10,0,0,0,227,12,0,0,0,227,13,1,0;            79P     40
508,7,0,227,5,1,0,0,227,1,1,0,0,227,8,1,0,0,227,11,1,0,0,227,14,      81P     41
0,0,0,227,15,1,0,0,227,16,1,0;                                        81P     42
508,4,0,227,17,1,0,0,227,14,1,0,0,227,13,0,0,0,227,18,0,0;            83P     43
508,7,0,227,7,1,0,0,227,19,0,0,0,227,20,1,0,0,227,18,1,0,0,227,       85P     44
12,1,0,0,227,9,1,0,0,227,3,1,0;                                       85P     45
508,4,0,227,21,1,0,0,227,19,1,0,0,227,6,0,0,0,227,16,0,0;             87P     46
508,4,0,227,15,0,0,0,227,17,0,0,0,227,20,0,0,0,227,21,0,0;            89P     47
126,1,1,0,0,1,0,-0.05,-0.05,0.15,0.15,1.,1.,-13.250000208616,         91P     48
3.49999999999994,-7.25,-11.250000208616,3.49999999999977,-7.25,       91P     49
-0.05,0.15,0.,0.,0.;                                                  91P     50
126,1,1,0,0,1,0,0.,0.,0.05,0.05,1.,1.,-13.250000208616,               93P     51
3.49999999999994,-7.25,-13.250000208616,2.99999999999994,-7.25,       93P     52
0.,0.05,0.,0.,0.;                                                     93P     53
126,1,1,0,0,1,0,-0.2,-0.2,0.,0.,1.,1.,-13.250000208616,               95P     54
2.99999999999994,-7.25,-11.250000208616,2.99999999999977,-7.25,       95P     55
-0.2,0.,0.,0.,0.;                                                     95P     56
126,1,1,0,0,1,0,0.,0.,0.05,0.05,1.,1.,-11.250000208616,               97P     57
3.49999999999977,-7.25,-11.250000208616,2.99999999999977,-7.25,       97P     58
0.,0.05,0.,0.,0.;                                                     97P     59
126,1,1,0,0,1,0,-0.15,-0.15,0.45,0.45,1.,1.,-13.250000208616,         99P     60
3.49999999999994,-1.25,-13.250000208616,3.49999999999994,-7.25,       99P     61
-0.15,0.45,0.,0.,0.;                                                  99P     62
126,1,1,0,0,1,0,0.,0.,0.05,0.05,1.,1.,-13.250000208616,              101P     63
3.49999999999994,-1.25,-13.250000208616,2.99999999999994,-1.25,      101P     64
0.,0.05,0.,0.,0.;                                                    101P     65
126,1,1,0,0,1,0,-0.6,-0.6,0.,0.,1.,1.,-13.250000208616,              103P     66
2.99999999999994,-1.25,-13.250000208616,2.99999999999994,-7.25,      103P     67
-0.6,0.,0.,0.,0.;                                                    103P     68
126,1,1,0,0,1,0,-0.05,-0.05,0.15,0.15,1.,1.,-11.250000208616,        105P     69
3.49999999999977,-1.25,-13.250000208616,3.49999999999994,-1.25,      105P     70
-0.05,0.15,0.,0.,0.;                                                 105P     71
126,1,1,0,0,1,0,0.,0.,0.05,0.05,1.,1.,-11.250000208616,              107P     72
3.49999999999977,-1.25,-11.250000208616,2.99999999999977,-1.25,      107P     73
0.,0.05,0.,0.,0.;                                                    107P     74
126,1,1,0,0,1,0,-0.2,-0.2,0.,0.,1.,1.,-11.250000208616,              109P     75
2.99999999999977,-1.25,-13.250000208616,2.99999999999994,-1.25,      109P     76
-0.2,0.,0.,0.,0.;                                                    109P     77
126,1,1,0,0,1,0,-0.15,-0.15,0.45,0.45,1.,1.,-11.250000208616,        111P     78
3.49999999999977,-7.25,-11.250000208616,3.49999999999977,-1.25,      111P     79
-0.15,0.45,0.,0.,0.;                                                 111P     80
126,1,1,0,0,1,0,-0.6,-0.6,0.,0.,1.,1.,-11.250000208616,              113P     81
2.99999999999977,-7.25,-11.250000208616,2.99999999999977,-1.25,      113P     82
-0.6,0.,0.,0.,0.;                                                    113P     83
126,1,1,0,0,1,0,-0.175,-0.175,0.175,0.175,1.,1.,                     115P     84
-10.500000208616,3.4999999999997,-8.5,-14.000000208616,3.5,-8.5,     115P     85
-0.175,0.175,0.,0.,0.;                                               115P     86
126,1,1,0,0,1,0,-0.425,-0.425,0.425,0.425,1.,1.,                     117P     87
-14.000000208616,3.5,-8.5,-14.000000208616,3.5,0.,-0.425,0.425,      117P     88
0.,0.,0.;                                                            117P     89
126,1,1,0,0,1,0,-0.175,-0.175,0.175,0.175,1.,1.,                     119P     90
-14.000000208616,3.5,0.,-10.500000208616,3.4999999999997,0.,         119P     91
-0.175,0.175,0.,0.,0.;                                               119P     92
126,1,1,0,0,1,0,-0.425,-0.425,0.425,0.425,1.,1.,                     121P     93
-10.500000208616,3.4999999999997,0.,-10.500000208616,                121P     94
3.4999999999997,-8.5,-0.425,0.425,0.,0.,0.;                          121P     95
126,1,1,0,0,1,0,-0.175,-0.175,0.175,0.175,1.,1.,                     123P     96
-14.0000002086163,4.69697184586038D-17,-8.5,-10.5000002086163,       123P     97
-2.99252074854938D-13,-8.5,-0.175,0.175,0.,0.,0.;                    123P     98
126,1,1,0,0,1,0,-0.425,-0.425,0.425,0.425,1.,1.,                     125P     99
-10.5000002086163,-2.9920510513648D-13,-8.5,-10.5000002086163,       125P    100
-2.9920510513648D-13,0.,-0.425,0.425,0.,0.,0.;                       125P    101
126,1,1,0,0,1,0,-0.175,-0.175,0.175,0.175,1.,1.,                     127P    102
-10.5000002086163,-2.99252074854938D-13,0.,-14.0000002086163,        127P    103
4.69697184586038D-17,0.,-0.175,0.175,0.,0.,0.;                       127P    104
126,1,1,0,0,1,0,-0.425,-0.425,0.425,0.425,1.,1.,                     129P    105
-14.0000002086163,0.,0.,-14.0000002086163,0.,-8.5,-0.425,0.425,      129P    106
0.,0.,0.;                                                            129P    107
126,1,1,0,0,1,0,-0.175,-0.175,0.175,0.175,1.,1.,                     131P    108
-10.500000208616,3.4999999999997,0.,-10.5000002086163,               131P    109
-2.9920510513648D-13,0.,-0.175,0.175,0.,0.,0.;                       131P    110
126,1,1,0,0,1,0,-0.175,-0.175,0.175,0.175,1.,1.,                     133P    111
-10.500000208616,3.4999999999997,-8.5,-10.5000002086163,             133P    112
-2.9920510513648D-13,-8.5,-0.175,0.175,0.,0.,0.;                     133P    113
126,1,1,0,0,1,0,-0.175,-0.175,0.175,0.175,1.,1.,                     135P    114
-14.000000208616,3.5,0.,-14.0000002086163,0.,0.,-0.175,0.175,0.,     135P    115
0.,0.;                                                               135P    116
126,1,1,0,0,1,0,-0.175,-0.175,0.175,0.175,1.,1.,                     137P    117
-14.000000208616,3.5,-8.5,-14.0000002086163,0.,-8.5,-0.175,          137P    118
0.175,0.,0.,0.;                                                      137P    119
126,1,1,0,0,1,0,-0.0176776695296637,-0.0176776695296637,             139P    120
0.0530330085889911,0.0530330085889911,1.,1.,-13.2500002086158,       139P    121
4.99999999999993,-1.75,-13.2500002086158,5.49999999999993,-2.25,     139P    122
-0.0176776695296637,0.0530330085889911,0.,0.,0.;                     139P    123
126,1,1,0,0,1,0,0.,0.,0.2,0.2,1.,1.,-11.2500002086158,               141P    124
4.99999999999977,-1.75,-13.2500002086158,4.99999999999993,-1.75,     141P    125
0.,0.2,0.,0.,0.;                                                     141P    126
126,1,1,0,0,1,0,-0.123743686707646,-0.123743686707646,               143P    127
-0.0530330085889911,-0.0530330085889911,1.,1.,-11.2500002086158,     143P    128
5.49999999999977,-2.25,-11.2500002086158,4.99999999999977,-1.75,     143P    129
-0.123743686707646,-0.0530330085889911,0.,0.,0.;                     143P    130
126,1,1,0,0,1,0,-0.15,-0.15,0.05,0.05,1.,1.,-13.2500002086158,       145P    131
5.49999999999993,-2.25,-11.2500002086158,5.49999999999977,-2.25,     145P    132
-0.15,0.05,0.,0.,0.;                                                 145P    133
126,1,1,0,0,1,0,-0.194454364826301,-0.194454364826301,               147P    134
-0.123743686707646,-0.123743686707646,1.,1.,-13.2500002086158,       147P    135
5.49999999999993,-1.25,-13.2500002086158,4.99999999999993,-1.75,     147P    136
-0.194454364826301,-0.123743686707646,0.,0.,0.;                      147P    137
126,1,1,0,0,1,0,0.,0.,0.2,0.2,1.,1.,-13.2500002086158,               149P    138
5.49999999999993,-1.25,-11.2500002086158,5.49999999999977,-1.25,     149P    139
0.,0.2,0.,0.,0.;                                                     149P    140
126,1,1,0,0,1,0,0.053033008588991,0.053033008588991,                 151P    141
0.123743686707646,0.123743686707646,1.,1.,-11.2500002086158,         151P    142
4.99999999999977,-1.75,-11.2500002086158,5.49999999999977,-1.25,     151P    143
0.053033008588991,0.123743686707646,0.,0.,0.;                        151P    144
126,1,1,0,0,1,0,-0.159099025766973,-0.159099025766973,               153P    145
-0.0883883476483184,-0.0883883476483184,1.,1.,-13.2500002086158,     153P    146
5.49999999999993,-2.25,-13.2500002086158,4.99999999999993,-2.75,     153P    147
-0.159099025766973,-0.0883883476483184,0.,0.,0.;                     153P    148
126,1,1,0,0,1,0,0.0176776695296637,0.0176776695296637,               155P    149
0.0883883476483184,0.0883883476483184,1.,1.,-11.2500002086158,       155P    150
4.99999999999977,-2.75,-11.2500002086158,5.49999999999977,-2.25,     155P    151
0.0176776695296637,0.0883883476483184,0.,0.,0.;                      155P    152
126,1,1,0,0,1,0,0.,0.,0.2,0.2,1.,1.,-11.2500002086158,               157P    153
4.99999999999977,-2.75,-13.2500002086158,4.99999999999993,-2.75,     157P    154
0.,0.2,0.,0.,0.;                                                     157P    155
126,1,1,0,0,1,0,0.0176776695296637,0.0176776695296637,               159P    156
0.0883883476483184,0.0883883476483184,1.,1.,-13.2500002086158,       159P    157
4.99999999999993,-2.75,-13.2500002086158,5.49999999999993,-3.25,     159P    158
0.0176776695296637,0.0883883476483184,0.,0.,0.;                      159P    159
126,1,1,0,0,1,0,-0.159099025766973,-0.159099025766973,               161P    160
-0.0883883476483184,-0.0883883476483184,1.,1.,-11.2500002086158,     161P    161
5.49999999999977,-3.25,-11.2500002086158,4.99999999999977,-2.75,     161P    162
-0.159099025766973,-0.0883883476483184,0.,0.,0.;                     161P    163
126,1,1,0,0,1,0,0.,0.,0.2,0.2,1.,1.,-11.2500002086158,               163P    164
5.49999999999977,-3.25,-13.2500002086158,5.49999999999993,-3.25,     163P    165
0.,0.2,0.,0.,0.;                                                     163P    166
126,1,1,0,0,1,0,0.,0.,0.25,0.25,1.,1.,-13.250000208616,              165P    167
2.99999999999993,-3.25,-13.2500002086158,5.49999999999993,-3.25,     165P    168
0.,0.25,0.,0.,0.;                                                    165P    169
126,1,1,0,0,1,0,0.,0.,0.2,0.2,1.,1.,-13.250000208616,                167P    170
2.99999999999993,-3.25,-13.250000208616,2.99999999999993,-1.25,      167P    171
0.,0.2,0.,0.,0.;                                                     167P    172
126,1,1,0,0,1,0,0.,0.,0.25,0.25,1.,1.,-13.250000208616,              169P    173
2.99999999999993,-1.25,-13.2500002086158,5.49999999999993,-1.25,     169P    174
0.,0.25,0.,0.,0.;                                                    169P    175
126,1,1,0,0,1,0,0.,0.,0.2,0.2,1.,1.,-11.250000208616,                171P    176
2.99999999999977,-3.25,-13.250000208616,2.99999999999993,-3.25,      171P    177
0.,0.2,0.,0.,0.;                                                     171P    178
126,1,1,0,0,1,0,0.,0.,0.25,0.25,1.,1.,-11.250000208616,              173P    179
2.99999999999977,-3.25,-11.2500002086158,5.49999999999977,-3.25,     173P    180
0.,0.25,0.,0.,0.;                                                    173P    181
126,1,1,0,0,1,0,0.,0.,0.25,0.25,1.,1.,-11.250000208616,              175P    182
2.99999999999977,-1.25,-11.2500002086158,5.49999999999977,-1.25,     175P    183
0.,0.25,0.,0.,0.;                                                    175P    184
126,1,1,0,0,1,0,0.,0.,0.2,0.2,1.,1.,-11.250000208616,                177P    185
2.99999999999977,-1.25,-11.250000208616,2.99999999999977,-3.25,      177P    186
0.,0.2,0.,0.,0.;                                                     177P    187
126,1,1,0,0,1,0,0.,0.,0.2,0.2,1.,1.,-13.250000208616,                179P    188
2.99999999999993,-1.25,-11.250000208616,2.99999999999977,-1.25,      179P    189
0.,0.2,0.,0.,0.;                                                     179P    190
128,1,1,1,1,0,0,1,0,0,-0.00100000000000422,-0.00100000000000422,     181P    191
0.201,0.201,-0.00100000000000001,-0.00100000000000001,               181P    192
0.0510000000000171,0.0510000000000171,1.,1.,1.,1.,                   181P    193
-11.240000208616,3.50999999999976,-7.25,-13.260000208616,            181P    194
3.50999999999994,-7.25,-11.240000208616,2.98999999999959,-7.25,      181P    195
-13.260000208616,2.98999999999977,-7.25,-0.00100000000000422,        181P    196
0.201,-0.00100000000000001,0.0510000000000171;                       181P    197
128,1,1,1,1,0,0,1,0,0,-0.001,-0.001,0.601,0.601,-0.001,-0.001,       183P    198
0.051,0.051,1.,1.,1.,1.,-13.250000208616,3.50999999999994,-7.26,     183P    199
-13.250000208616,3.50999999999994,-1.24,-13.250000208616,            183P    200
2.98999999999994,-7.26,-13.250000208616,2.98999999999994,-1.24,      183P    201
-0.001,0.601,-0.001,0.051;                                           183P    202
128,1,1,1,1,0,0,1,0,0,-0.00100000000000015,-0.00100000000000015,     185P    203
0.201,0.201,-0.001,-0.001,0.051,0.051,1.,1.,1.,1.,                   185P    204
-13.260000208616,3.50999999999994,-1.25,-11.240000208616,            185P    205
3.50999999999976,-1.25,-13.260000208616,2.98999999999994,-1.25,      185P    206
-11.240000208616,2.98999999999976,-1.25,-0.00100000000000015,        185P    207
0.201,-0.001,0.051;                                                  185P    208
128,1,1,1,1,0,0,1,0,0,-0.001,-0.001,0.601,0.601,-0.001,-0.001,       187P    209
0.051,0.051,1.,1.,1.,1.,-11.250000208616,3.50999999999977,-1.24,     187P    210
-11.250000208616,3.50999999999977,-7.26,-11.250000208616,            187P    211
2.98999999999976,-1.24,-11.250000208616,2.98999999999977,-7.26,      187P    212
-0.001,0.601,-0.001,0.051;                                           187P    213
128,1,1,1,1,0,0,1,0,0,-0.301,-0.301,0.301,0.301,-0.101,-0.101,       189P    214
0.101,0.101,1.,1.,1.,1.,-13.260000208616,2.99999999999994,-7.26,     189P    215
-13.260000208616,2.99999999999994,-1.24,-11.240000208616,            189P    216
2.99999999999976,-7.26,-11.240000208616,2.99999999999976,-1.24,      189P    217
-0.301,0.301,-0.101,0.101;                                           189P    218
128,1,1,1,1,0,0,1,0,0,-0.426,-0.426,0.426,0.426,-0.176,-0.176,       191P    219
0.176,0.176,1.,1.,1.,1.,-10.490000208616,3.4999999999997,0.01,       191P    220
-10.490000208616,3.4999999999997,-8.51,-14.010000208616,3.5,         191P    221
0.01,-14.010000208616,3.5,-8.51,-0.426,0.426,-0.176,0.176;           191P    222
128,1,1,1,1,0,0,1,0,0,-0.426,-0.426,0.426,0.426,-0.176,-0.176,       193P    223
0.176,0.176,1.,1.,1.,1.,-10.4900002086163,-3.00107214982291D-13,     193P    224
-8.51,-10.4900002086163,-3.00107214982291D-13,0.01,                  193P    225
-14.0100002086163,9.02109845811166D-16,-8.51,-14.0100002086163,      193P    226
9.02109845811166D-16,0.01,-0.426,0.426,-0.176,0.176;                 193P    227
128,1,1,1,1,0,0,1,0,0,-0.176,-0.176,0.176,0.176,-0.426,-0.426,       195P    228
0.426,0.426,1.,1.,1.,1.,-10.500000208616,3.5099999999997,0.01,       195P    229
-10.5000002086163,-0.0100000000002992,0.01,-10.500000208616,         195P    230
3.5099999999997,-8.51,-10.5000002086163,-0.0100000000002992,         195P    231
-8.51,-0.176,0.176,-0.426,0.426;                                     195P    232
128,1,1,1,1,0,0,1,0,0,-0.176,-0.176,0.176,0.176,-0.176,-0.176,       197P    233
0.176,0.176,1.,1.,1.,1.,-10.4900002086163,-0.0100000000003001,       197P    234
0.,-10.490000208616,3.5099999999997,0.,-14.0100002086163,            197P    235
-0.00999999999999945,0.,-14.010000208616,3.51,0.,-0.176,0.176,       197P    236
-0.176,0.176;                                                        197P    237
128,1,1,1,1,0,0,1,0,0,-0.176,-0.176,0.176,0.176,-0.426,-0.426,       199P    238
0.426,0.426,1.,1.,1.,1.,-14.0000002086163,-0.01,0.01,                199P    239
-14.000000208616,3.51,0.01,-14.0000002086163,-0.01,-8.51,            199P    240
-14.000000208616,3.51,-8.51,-0.176,0.176,-0.426,0.426;               199P    241
128,1,1,1,1,0,0,1,0,0,-0.176,-0.176,0.176,0.176,-0.176,-0.176,       201P    242
0.176,0.176,1.,1.,1.,1.,-10.490000208616,3.5099999999997,-8.5,       201P    243
-10.4900002086163,-0.0100000000003001,-8.5,-14.010000208616,         201P    244
3.51,-8.5,-14.0100002086163,-0.00999999999999911,-8.5,-0.176,        201P    245
0.176,-0.176,0.176;                                                  201P    246
128,1,1,1,1,0,0,1,0,0,-0.00100000000000002,-0.00100000000000002,     203P    247
0.0717106781186547,0.0717106781186547,-0.00100000000000017,          203P    248
-0.00100000000000017,0.201,0.201,1.,1.,1.,1.,-11.2400002086158,      203P    249
4.9929289321879,-1.74292893218813,-11.2400002086158,                 203P    250
5.50707106781163,-2.25707106781187,-13.2600002086158,                203P    251
4.99292893218807,-1.74292893218813,-13.2600002086158,                203P    252
5.5070710678118,-2.25707106781187,-0.00100000000000002,              203P    253
0.0717106781186547,-0.00100000000000017,0.201;                       203P    254
128,1,1,1,1,0,0,1,0,0,-0.001,-0.001,0.0717106781186547,              205P    255
0.0717106781186547,-0.00100000000000011,-0.00100000000000011,        205P    256
0.201,0.201,1.,1.,1.,1.,-11.2400002086158,5.50707106781163,          205P    257
-1.24292893218813,-11.2400002086158,4.9929289321879,                 205P    258
-1.75707106781187,-13.2600002086158,5.5070710678118,                 205P    259
-1.24292893218813,-13.2600002086158,4.99292893218807,                205P    260
-1.75707106781187,-0.001,0.0717106781186547,                         205P    261
-0.00100000000000011,0.201;                                          205P    262
128,1,1,1,1,0,0,1,0,0,-0.001,-0.001,0.0717106781186548,              207P    263
0.0717106781186548,-0.00100000000000006,-0.00100000000000006,        207P    264
0.201,0.201,1.,1.,1.,1.,-11.2400002086158,5.50707106781163,          207P    265
-2.24292893218813,-11.2400002086158,4.9929289321879,                 207P    266
-2.75707106781187,-13.2600002086158,5.5070710678118,                 207P    267
-2.24292893218813,-13.2600002086158,4.99292893218807,                207P    268
-2.75707106781187,-0.001,0.0717106781186548,                         207P    269
-0.00100000000000006,0.201;                                          207P    270
128,1,1,1,1,0,0,1,0,0,-0.001,-0.001,0.0717106781186547,              209P    271
0.0717106781186547,-0.00100000000000006,-0.00100000000000006,        209P    272
0.201,0.201,1.,1.,1.,1.,-11.2400002086158,4.9929289321879,           209P    273
-2.74292893218813,-11.2400002086158,5.50707106781163,                209P    274
-3.25707106781187,-13.2600002086158,4.99292893218807,                209P    275
-2.74292893218813,-13.2600002086158,5.5070710678118,                 209P    276
-3.25707106781187,-0.001,0.0717106781186547,                         209P    277
-0.00100000000000006,0.201;                                          209P    278
128,1,1,1,1,0,0,1,0,0,-0.001,-0.001,0.201,0.201,-0.001,-0.001,       211P    279
0.251,0.251,1.,1.,1.,1.,-13.250000208616,2.98999999999993,-3.26,     211P    280
-13.250000208616,2.98999999999993,-1.24,-13.2500002086158,           211P    281
5.50999999999993,-3.26,-13.2500002086158,5.50999999999993,-1.24,     211P    282
-0.001,0.201,-0.001,0.251;                                           211P    283
128,1,1,1,1,0,0,1,0,0,-0.00100000000000011,-0.00100000000000011,     213P    284
0.201,0.201,-0.001,-0.001,0.251,0.251,1.,1.,1.,1.,                   213P    285
-11.240000208616,2.98999999999976,-3.25,-13.260000208616,            213P    286
2.98999999999994,-3.25,-11.2400002086158,5.50999999999976,-3.25,     213P    287
-13.2600002086158,5.50999999999993,-3.25,-0.00100000000000011,       213P    288
0.201,-0.001,0.251;                                                  213P    289
128,1,1,1,1,0,0,1,0,0,-0.00100000000000003,-0.00100000000000003,     215P    290
0.201,0.201,-0.001,-0.001,0.251,0.251,1.,1.,1.,1.,                   215P    291
-11.250000208616,2.98999999999977,-1.24,-11.250000208616,            215P    292
2.98999999999977,-3.26,-11.2500002086158,5.50999999999977,-1.24,     215P    293
-11.2500002086158,5.50999999999976,-3.26,-0.00100000000000003,       215P    294
0.201,-0.001,0.251;                                                  215P    295
128,1,1,1,1,0,0,1,0,0,-0.00100000000000006,-0.00100000000000006,     217P    296
0.201000000000021,0.201000000000021,-0.00100000000001688,            217P    297
-0.00100000000001688,0.251,0.251,1.,1.,1.,1.,-13.260000208616,       217P    298
2.98999999999977,-1.25,-11.2400002086158,2.9899999999996,-1.25,      217P    299
-13.2600002086158,5.50999999999993,-1.25,-11.2400002086156,          217P    300
5.50999999999976,-1.25,-0.00100000000000006,0.201000000000021,       217P    301
-0.00100000000001688,0.251;                                          217P    302
128,1,1,1,1,0,0,1,0,0,-0.101,-0.101,0.101,0.101,-0.101,-0.101,       219P    303
0.101,0.101,1.,1.,1.,1.,-13.260000208616,2.99999999999994,-3.26,     219P    304
-11.240000208616,2.99999999999976,-3.26,-13.260000208616,            219P    305
2.99999999999994,-1.24,-11.240000208616,2.99999999999976,-1.24,      219P    306
-0.101,0.101,-0.101,0.101;                                           219P    307
502,16,-13.250000208616,3.49999999999994,-7.25,-11.250000208616,     221P    308
3.49999999999977,-7.25,-13.250000208616,2.99999999999994,-7.25,      221P    309
-11.250000208616,2.99999999999977,-7.25,-13.250000208616,            221P    310
3.49999999999994,-1.25,-13.250000208616,2.99999999999994,-1.25,      221P    311
-11.250000208616,3.49999999999977,-1.25,-11.250000208616,            221P    312
2.99999999999977,-1.25,-10.500000208616,3.4999999999997,-8.5,        221P    313
-14.000000208616,3.5,-8.5,-14.000000208616,3.5,0.,                   221P    314
-10.500000208616,3.4999999999997,0.,-14.0000002086163,0.,-8.5,       221P    315
-10.5000002086163,-2.9920510513648D-13,-8.5,-10.5000002086163,       221P    316
-2.9920510513648D-13,0.,-14.0000002086163,0.,0.;                     221P    317
502,14,-13.2500002086158,4.99999999999993,-1.75,                     223P    318
-13.2500002086158,5.49999999999993,-2.25,-11.2500002086158,          223P    319
4.99999999999977,-1.75,-11.2500002086158,5.49999999999977,-2.25,     223P    320
-13.2500002086158,5.49999999999993,-1.25,-11.2500002086158,          223P    321
5.49999999999977,-1.25,-13.2500002086158,4.99999999999993,-2.75,     223P    322
-11.2500002086158,4.99999999999977,-2.75,-13.2500002086158,          223P    323
5.49999999999993,-3.25,-11.2500002086158,5.49999999999977,-3.25,     223P    324
-13.250000208616,2.99999999999993,-3.25,-13.250000208616,            223P    325
2.99999999999993,-1.25,-11.250000208616,2.99999999999977,-3.25,      223P    326
-11.250000208616,2.99999999999977,-1.25;                             223P    327
504,24,91,221,1,221,2,93,221,1,221,3,95,221,3,221,4,97,221,2,        225P    328
221,4,99,221,5,221,1,101,221,5,221,6,103,221,6,221,3,105,221,7,      225P    329
221,5,107,221,7,221,8,109,221,8,221,6,111,221,2,221,7,113,221,4,     225P    330
221,8,115,221,9,221,10,117,221,10,221,11,119,221,11,221,12,121,      225P    331
221,12,221,9,123,221,13,221,14,125,221,14,221,15,127,221,15,221,     225P    332
16,129,221,16,221,13,131,221,12,221,15,133,221,9,221,14,135,221,     225P    333
11,221,16,137,221,10,221,13;                                         225P    334
504,21,139,223,1,223,2,141,223,3,223,1,143,223,4,223,3,145,223,      227P    335
2,223,4,147,223,5,223,1,149,223,5,223,6,151,223,3,223,6,153,223,     227P    336
2,223,7,155,223,8,223,4,157,223,8,223,7,159,223,7,223,9,161,223,     227P    337
10,223,8,163,223,10,223,9,165,223,11,223,9,167,223,11,223,12,        227P    338
169,223,12,223,5,171,223,13,223,11,173,223,13,223,10,175,223,14,     227P    339
223,6,177,223,14,223,13,179,223,12,223,14;                           227P    340
406,1,5HBody1;                                                       229P    341
406,1,5HBody2;                                                       231P    342
314,62.7450980392157,62.7450980392157,62.7450980392157,13HSteel      233P    343
- Satin;                                                             233P    344
S      1G      2D    234P    344                                        T      1
